<?xml version="1.0" encoding="utf-8"?>
<!-- Generator: Adobe Illustrator 23.0.0, SVG Export Plug-In . SVG Version: 6.00 Build 0)  -->
<svg version="1.1" id="Layer_1" xmlns="http://www.w3.org/2000/svg" xmlns:xlink="http://www.w3.org/1999/xlink" x="0px" y="0px"
	 viewBox="0 0 152 36" style="enable-background:new 0 0 152 36;" xml:space="preserve">
<style type="text/css">
	.st0{fill:#FFFFFF;}
</style>
<g>
	<path class="st0" d="M33.83,16.1c-2.35,2.59-6.29,4.19-10.28,4.19c-2.15,0-4.18-0.47-5.85-1.35c-2.06-1.08-3.38-2.68-3.7-4.5
		c-0.32-1.82,0.37-3.77,1.93-5.5c2.35-2.59,6.29-4.19,10.28-4.19h0c0.95,0,1.87,0.09,2.75,0.27l0,0C26.01,2.51,22.18,1,18,1
		C8.61,1,1,8.61,1,18s7.61,17,17,17c2.57,0,5.01-0.57,7.19-1.59c-0.07,0-0.14,0-0.21,0c-2.75,0-5.43-0.42-7.96-1.25
		c-2.57-0.85-4.87-2.08-6.83-3.67c-0.41-0.33-0.8-0.68-1.17-1.03c-0.08-0.08-0.17-0.16-0.25-0.24C6.32,24.75,4.97,21.48,4.97,18
		c0-1.02,0.12-2.01,0.34-2.98c-0.14,4.62,2.17,9.17,6.79,12.3c3.53,2.39,7.84,3.55,12.18,3.55c1.86,0,3.72-0.21,5.53-0.64
		c1.65-1.59,2.98-3.52,3.88-5.67c-0.74,0.41-1.53,0.77-2.36,1.08c-2.2,0.83-4.64,1.26-7.05,1.26c-3.69,0-7.22-1.02-9.96-2.87
		c-2.97-2-4.75-4.79-5.01-7.83c-0.15-1.71,0.18-3.42,0.96-5.03c-1.12,4.35,0.86,8.8,5.59,11.28c2.32,1.22,4.99,1.8,7.7,1.8
		c4.03,0,8.13-1.29,11.26-3.69C34.93,19.73,35,18.87,35,18c0-1.04-0.09-2.06-0.27-3.05C34.47,15.34,34.17,15.72,33.83,16.1z"/>
	<polygon class="st0" points="25.19,33.41 25.19,33.41 25.19,33.41 	"/>
	<path class="st0" d="M51.92,18.23c3.07,0,5.02-2.08,5.02-4.94V4.99h-2.23c0,0,0,3.72,0,8.01c0,1.86-0.95,3.1-2.79,3.1
		c-1.86,0-2.79-1.25-2.79-3.1c0-4.29,0-8.01,0-8.01H46.9v8.29C46.9,16.14,48.85,18.23,51.92,18.23z"/>
	<polygon class="st0" points="61.74,12.13 66.85,18 69.8,18 64.08,11.39 69.17,4.99 66.38,4.99 61.74,10.83 61.74,4.99 59.51,4.99 
		59.51,18 61.74,18 	"/>
	<path class="st0" d="M78.1,14.69c0-2.1-1.25-2.94-3.23-3.85c-1.78-0.82-2.9-1.34-2.9-2.66c0-0.93,0.76-1.93,2.19-1.93
		c1.62,0,2.53,1.36,2.53,1.36l1.17-0.95c0,0-1.25-1.9-3.7-1.9c-2.49,0-3.75,1.9-3.75,3.42c0,2.21,1.67,3.09,3.57,3.96
		c1.45,0.67,2.53,1.19,2.53,2.55c0,1.34-1.19,2.04-2.43,2.04c-2.06,0-2.84-2.01-2.84-2.01l-1.3,0.78c0,0,1.06,2.71,4.14,2.71
		C76.35,18.23,78.1,16.81,78.1,14.69z"/>
	<polygon class="st0" points="82.88,18 84.44,18 84.44,6.48 88.18,6.48 88.18,4.99 79.15,4.99 79.15,6.48 82.88,6.48 	"/>
	<path class="st0" d="M88.59,18l1.36-3.51h5.61L96.92,18h1.64L93.48,4.99h-1.45L86.92,18H88.59z M92.76,7.22L94.99,13h-4.46
		L92.76,7.22z"/>
	<path class="st0" d="M107.68,8.84c0-2.32-1.77-3.85-4.35-3.85h-3.38V18h1.56v-5.32h1.21l3.51,5.32h1.88l-3.61-5.45
		C104.87,12.5,107.68,11.93,107.68,8.84z M101.51,11.2V6.48h1.91c1.75,0,2.7,0.93,2.7,2.36c0,1.43-0.95,2.36-2.7,2.36H101.51z"/>
	<path class="st0" d="M120.73,12.02c0.32-0.43,1.13-1.58,1.13-3.2c0-2.16-1.36-4.05-4.16-4.05c-3.48,0-4.31,3.25-4.31,3.25
		l1.99,0.72c0,0,0.41-1.9,2.32-1.9c1.23,0,1.93,0.97,1.93,2.01c0,1.47-1.02,2.45-1.51,3.09L113.35,18h8.57v-2.12h-4.18L120.73,12.02
		z"/>
	<path class="st0" d="M128.28,4.77c-3.31,0-4.91,3.2-4.91,6.73c0,3.53,1.6,6.73,4.91,6.73s4.87-3.2,4.87-6.73
		C133.15,7.97,131.58,4.77,128.28,4.77z M128.28,16.14c-1.8,0-2.68-2.1-2.68-4.65s0.87-4.65,2.68-4.65s2.64,2.1,2.64,4.65
		S130.08,16.14,128.28,16.14z"/>
	<polygon class="st0" points="133.93,8.15 135.21,9.79 137.5,7.97 137.5,18 139.73,18 139.73,4.99 137.89,4.99 	"/>
	<path class="st0" d="M146.25,4.77c-2.79,0-4.55,2.19-4.55,4.41c0,2.21,1.73,4.41,4.41,4.41c0.2,0,0.45-0.06,0.45-0.06l-2.38,3.85
		l1.86,1.15c0,0,3.83-6.32,4.03-6.69c0.33-0.63,0.74-1.58,0.74-2.7C150.81,6.96,149.04,4.77,146.25,4.77z M146.25,11.5
		c-1.28,0-2.3-0.91-2.3-2.32c0-1.41,1.02-2.32,2.3-2.32c1.28,0,2.3,0.91,2.3,2.32C148.56,10.59,147.53,11.5,146.25,11.5z"/>
	<polygon class="st0" points="48.46,21.98 46.9,21.98 46.9,31.1 52.35,31.1 52.35,29.62 48.46,29.62 	"/>
	<path class="st0" d="M57.3,21.82c-2.66,0-4.61,2.02-4.61,4.72s1.96,4.72,4.61,4.72s4.61-2.02,4.61-4.72S59.96,21.82,57.3,21.82z
		 M57.3,29.77c-1.84,0-3.02-1.47-3.02-3.23s1.19-3.23,3.02-3.23s3.02,1.47,3.02,3.23S59.14,29.77,57.3,29.77z"/>
	<polygon class="st0" points="69.39,28.26 64.83,21.98 63.42,21.98 63.42,31.1 64.99,31.1 64.99,24.83 69.55,31.1 70.96,31.1 
		70.96,21.98 69.39,21.98 	"/>
	<path class="st0" d="M75.93,21.98h-2.95v9.12h2.95c2.66,0,4.51-1.93,4.51-4.56S78.59,21.98,75.93,21.98z M75.95,29.62h-1.41v-6.15
		h1.41c1.77,0,2.89,1.41,2.89,3.08C78.85,28.2,77.73,29.62,75.95,29.62z"/>
	<path class="st0" d="M86.04,21.82c-2.66,0-4.61,2.02-4.61,4.72s1.96,4.72,4.61,4.72s4.61-2.02,4.61-4.72S88.7,21.82,86.04,21.82z
		 M86.04,29.77c-1.84,0-3.02-1.47-3.02-3.23s1.19-3.23,3.02-3.23c1.84,0,3.02,1.47,3.02,3.23S87.88,29.77,86.04,29.77z"/>
	<polygon class="st0" points="98.14,28.26 93.57,21.98 92.17,21.98 92.17,31.1 93.73,31.1 93.73,24.83 98.29,31.1 99.7,31.1 
		99.7,21.98 98.14,21.98 	"/>
</g>
</svg>
