<svg xmlns="http://www.w3.org/2000/svg" viewBox="0 0 1544.9 339.88"><path d="M1337.5,338.4c-8.3-2-19.3-7.5-24.8-12.4-11.8-10.3-22.6-27.3-24.8-38.9-.5-2.9-1-13.3-1-23.1,0-20.8,1.5-28.4,8.1-41,10.3-19.9,28-31.5,50-32.7,16.4-1,30.4,2.8,42,11.3l5.9,4.4v-4.8c0-7,3.8-10,9.1-7.2,1.8,1,1.9,2.3,1.9,20.3,0,20.7-.2,21.7-5.1,21.7a5.62,5.62,0,0,1-5.9-5.9c0-5.3-5.1-13.3-11.7-18.3-20.8-15.6-50.3-13.7-66.7,4.3-6.8,7.6-13.2,19.7-15.1,28.7-1.7,7.8-1.9,27.8-.5,37.2,1.6,10.4,7.9,22.1,16.4,30.5,11.6,11.3,23.6,16.5,38.6,16.5,14.3,0,26-5.2,38.4-17.2,8.1-7.9,11.5-9.5,14.4-6.6,7,7-16.6,28-37.3,33.3C1362,340.4,1345.5,340.3,1337.5,338.4Z" transform="translate(0 0)" style="fill:#fff"/><path d="M151.7,327.2c-9.5-4.8-20.9-10.9-25.4-13.5-7.8-4.5-8.2-5-11.3-11.6-5.8-12.7-7.3-24.7-4.6-37.6,4.6-21.7,21.6-39.4,43.6-45.1,8.3-2.2,22.5-2.2,30.8,0,20.9,5.4,38.2,22.9,43.2,43.6,3,12.6.8,29.7-5.2,41.1-3,5.6-3.7,6.2-14.3,12.1-12.1,6.7-37.7,19.8-38.8,19.8C169.3,336,161.2,332,151.7,327.2Z" transform="translate(0 0)" style="fill:#fff"/><path d="M433.5,334.4c-2-1.9-2-4.4-.2-7,1.3-1.7,3-1.9,17-2.2l15.6-.3V204H425l-.3,20.1c-.3,18.5-.5,20.2-2.2,21.5-2.7,1.9-5.2,1.8-7.6-.6-1.9-1.9-2-3.3-2-27V193H531l-.3,25.6c-.3,24-.4,25.7-2.2,27a5.48,5.48,0,0,1-7.2,0c-1.7-1.3-1.9-3-2.2-21.5l-.3-20.1H477.9V324.9l15.6.3c14,.3,15.7.5,17,2.2,1.8,2.6,1.8,5.1-.2,7-1.3,1.4-6.2,1.6-38.4,1.6S434.8,335.8,433.5,334.4Z" transform="translate(0 0)" style="fill:#fff"/><path d="M544.1,334.8c-.7-.7-1.2-2.7-1.2-4.5,0-4.2,2.5-5.3,11.6-5.3h6.4V204h-5.3c-6,0-7.7-1.2-7.7-5.1,0-5.6,1.3-5.9,22.6-5.9,18.1,0,19.5.1,21.4,2,2.4,2.4,2.5,3.8.4,6.8-1.4,2-2.3,2.2-10.5,2.2h-8.9v52h68V204h-9.3c-10.1,0-11.7-.7-11.7-5.1,0-5.6,1.3-5.9,22.6-5.9,18.1,0,19.5.1,21.4,2,4.6,4.6,1.4,9-6.6,9h-5.4V325h7.3c10.3,0,13.9,3.1,10.7,9.1-1,1.8-2.4,1.9-24.3,1.9-25,0-25.7-.1-25.7-5.1,0-4.4,3.2-5.9,12.7-5.9h8.3V268h-68v56.8l9.1.4c7.6.2,9.3.6,10.5,2.2,1.8,2.6,1.8,5.1-.2,7-1.3,1.4-4.9,1.6-24.3,1.6C551.7,336,545,335.7,544.1,334.8Z" transform="translate(0 0)" style="fill:#fff"/><path d="M681.9,334.1c-3.3-6.2.4-9.1,11.7-9.1h8.3V204H693c-9.8,0-12.1-1.1-12.1-5.5,0-5.5-.5-5.5,60.7-5.5h56.3v20.3c0,21.8-.2,22.7-5.1,22.7-5.3,0-5.9-1.7-5.9-17.6V204h-74v53h37v-7.9c0-8.7,1.2-11.1,5.5-11.1,5.2,0,5.5,1.4,5.5,24s-.3,24-5.5,24c-4.2,0-5.5-2.4-5.5-10.6V268h-37v57h78.8l.4-17.1c.3-15.5.5-17.2,2.2-18.5,2.7-1.9,5.2-1.8,7.6.6,1.9,1.9,2,3.3,2,24v22H743.4C684.7,336,682.9,335.9,681.9,334.1Z" transform="translate(0 0)" style="fill:#fff"/><path d="M876.9,334c-1.7-3.1-.8-6.3,2-7.7,1.4-.7,6-1.3,10.3-1.3h7.7V204H888c-9.8,0-12.1-1.1-12.1-5.5,0-5.3,1.3-5.5,41.5-5.5,40.4,0,46.4.6,55.5,5.6,6.6,3.6,13.5,10.6,16.7,16.8,3.5,6.7,4.3,18.1,1.9,25.4-1.8,5.4-7.8,12.9-13.7,17.2l-3.7,2.6,7.1,3.4c8.3,4,16.3,11.5,19.7,18.5,2.1,4.3,2.5,6.4,2.5,15,0,8.9-.3,10.6-2.8,15.6-3.5,7.3-11.9,15.2-20.4,19.2l-6.8,3.2-47.7.3C878.2,336.1,878,336.1,876.9,334Zm98.5-12.1c18-9.5,22.2-27.1,9.9-40.8-9.9-11-18.3-13.1-52.6-13.1H907.9v57.1l31.3-.3,31.2-.3Zm-12.1-68.8c11.6-4.6,20-17,18.1-26.4-1.8-8.3-9-16.1-18.8-20-4.7-1.9-7.7-2.1-29.9-2.5l-24.8-.4v52.4l24.8-.4C955.8,255.5,957.8,255.3,963.3,253.1Z" transform="translate(0 0)" style="fill:#fff"/><path d="M1011.1,334.8a6.25,6.25,0,0,1-1.2-3.9c0-4.4,3.2-5.9,12.7-5.9h8.3V204h-9.3c-5.9,0-9.7-.4-10.5-1.2-2-2-1.5-7.6.7-8.8,1.3-.6,21.5-1,58.5-1h56.6v19.9c0,21.9-.3,23.1-5.9,23.1-4.7,0-5.1-1.2-5.1-17.2V204h-74v53h35.8l.4-8.1c.4-8.7,1.7-10.9,6.4-10.9s5.4,2.8,5.4,24c0,22.2-.6,24.4-6.3,23.8-4.1-.4-5.7-3.5-5.7-11.5V268h-36v57h79V308.5c0-15.2.2-16.7,2-18.5,2.4-2.4,5.3-2.6,7.4-.4,1.4,1.3,1.6,4.9,1.6,24V336h-59.8C1026.9,336,1012,335.7,1011.1,334.8Z" transform="translate(0 0)" style="fill:#fff"/><path d="M1142.9,334.1c-2.9-5.5-.2-8.4,8.3-9.1l6-.5,22.6-60,22.6-60-16.9-.3c-14-.2-17.3-.5-18.8-1.9-2.4-2.1-2.3-4.8.2-7.3,1.9-1.9,3.3-2,30.3-2h28.3l25.4,66,25.3,66h4.8c7.4,0,9.9,1.3,9.9,5.3,0,1.8-.5,3.8-1.2,4.5-.9.9-7.9,1.2-25.3,1.2-25.8,0-26.5-.1-26.5-5.1,0-4.4,2.3-5.4,14.6-5.9l11.2-.5-6.6-17.7-6.7-17.8-33.9.3-33.9.2-6.3,16.9c-3.5,9.3-6.4,17.2-6.4,17.6s5.2,1,11.6,1.2c10.1.3,11.7.6,13,2.2,1.8,2.6,1.8,5.1-.2,7-1.3,1.4-5.1,1.6-25.9,1.6C1145.3,336,1143.9,335.9,1142.9,334.1Zm101.2-60.8c-19.7-51.7-26.9-69.3-28.1-69.1-.8.2-6.1,12.9-13.2,31.8-6.5,17.3-12.7,33.9-13.8,36.8l-2,5.2h58.9Z" transform="translate(0 0)" style="fill:#fff"/><path d="M1418.5,334.4c-2-1.9-2-4.4-.2-6.9,1.2-1.6,2.9-2,9.5-2.3l8.1-.4V204h-5.4c-4.5,0-5.8-.4-7-2.2-2.1-3-2-4.4.4-6.8,1.9-1.9,3.3-2,21.4-2,21.3,0,22.6.3,22.6,5.9,0,4.4-1.6,5.1-11.7,5.1h-9.3v52h68V204H1506c-9.7,0-11.3-.8-11.3-5.7s1.9-5.3,22.5-5.3c11.1,0,19.6.4,20.8,1,2.2,1.2,2.7,6.8.7,8.8-.7.7-3.6,1.2-6.5,1.2h-5.3V325h6.4c9.1,0,11.6,1.1,11.6,5.3,0,1.8-.5,3.8-1.2,4.5-.9.9-7.6,1.2-24,1.2h-22.8l-1.5-2.4c-2-3-.6-7.1,2.7-7.9a49.77,49.77,0,0,1,9.6-.7h7.2V268h-68v57h8.3c9.5,0,12.7,1.5,12.7,5.9,0,5-.7,5.1-25.1,5.1C1423.4,336,1419.8,335.8,1418.5,334.4Z" transform="translate(0 0)" style="fill:#fff"/><path d="M91.3,292C85,287.7,84,286.5,81,280.1c-24.8-53.9,5.3-116.4,63.5-131.8,13.5-3.5,34.5-3.8,47.4-.5,35.3,8.8,61.9,34.4,71.3,68.7,1.9,6.7,2.2,10.6,2.2,24.5,0,18.2-1.3,24.8-7.7,39-2.9,6.6-3.7,7.6-10.6,12.2-4,2.7-7.6,4.7-7.9,4.4s0-2.7.5-5.3a68.81,68.81,0,0,0-8-50.1c-5-8.6-18.9-22-27.3-26.4-11.6-6-18.7-7.9-31.6-8.5-14.7-.7-23.5,1.1-36.2,7.5-7.6,3.7-10.8,6.1-18.2,13.6-9.8,9.9-14.7,17.7-18.4,29.8a71.6,71.6,0,0,0-.5,37.6C100.4,297.9,99.4,297.6,91.3,292Z" transform="translate(0 0)" style="fill:#fff"/><path d="M55.8,264.7c-4.6-4.1-9.4-8.5-10.6-9.8-2.9-3.1-7.6-17.8-9.7-29.8s-2.1-34-.1-45.7C45,124.3,90,80,145.8,70.6c12.4-2.1,34.9-2.1,47.2,0,55.7,9.5,99.4,51.9,110,106.9,4,20.3,2.3,46.4-4.3,66.2-2.9,8.7-3.5,9.7-9.7,15.5-8.9,8.4-15.1,13.2-15.1,11.8a65,65,0,0,1,1.7-7.4c2.7-9.6,2.5-37.4-.4-48.1-11.5-42-43.9-72.1-86.2-80.1-10.1-1.9-28.8-2.1-38.1-.4-27.3,5-52.7,20.4-69.1,41.9-6.5,8.6-15.3,26.5-17.9,36.6-4.5,17.5-4.7,35.9-.5,51.9.9,3.2,1.4,6.1,1.2,6.3S60.4,268.7,55.8,264.7Z" transform="translate(0 0)" style="fill:#fff"/><path d="M18.7,224.3c-7.2-10.7-11.4-19-14.9-29.3C.7,186.2.5,184.4.1,169.5c-.3-13.1,0-18.3,1.7-28.4,11-65,59.3-116.9,124.6-134C141.9,3,155,1.7,174.9,2.3c27.4.8,45.4,5.1,69,16.3,57.8,27.6,95,85.3,95,147.2,0,17.9-2.1,26.7-10,42.7-5.6,11.4-12.6,22.2-13.6,21.2-.3-.2,0-3.5.6-7.3a178.24,178.24,0,0,0,1.1-20.9c0-23.2-4.2-40.8-14.6-62.2-21.3-43.6-62.9-73.7-111.8-80.9-14.2-2.1-37.9-1.4-51.2,1.4C81.6,72.3,37.1,116.2,24.4,173.3c-2.3,9.9-3.1,36.5-1.5,47.8.6,5,1,9.2.7,9.5S21.2,228,18.7,224.3Z" transform="translate(0 0)" style="fill:#fff"/><path d="M612.3,149a65.35,65.35,0,0,1-36.4-19.6c-13.8-14.6-17.6-27.5-16.7-57.9.6-19.5,1.6-25.1,6.8-36.1A60.33,60.33,0,0,1,594.6,6.1c10-5,17.8-6.4,32.8-5.8,14.8.5,22.3,2.4,31.7,8.1l5.8,3.5.6-2.7c.9-4.4,2-5.7,5.1-6,5.7-.6,6.3,1.2,6.3,17.8,0,8.2-.3,15.6-.6,16.5a6.15,6.15,0,0,1-3.2,2.6c-3.9,1.5-6.8-1-7.6-6.5-1-6.6-5.2-11.6-13.3-15.9-20.3-10.6-46.4-8.5-61.4,5-7.7,7-16,20.3-18.5,29.8-2,7.3-1.9,39.2.1,47,4.8,18.5,18.2,31.9,37.1,36.9,15,4.1,33,2.9,48.6-3.2l6.8-2.6V93H645.1c-14.1,0-20.1-.3-21-1.2-2-2-1.5-7.6.7-8.8,1.2-.6,12.8-1,30.5-1,27.3,0,28.7.1,30.6,2,2.4,2.4,2.5,3.8.4,6.8-1.1,1.6-2.5,2.2-5.5,2.2h-3.9v44.1l-8.5,4c-12.9,6.1-21.8,8.1-37.5,8.5C623.5,149.7,615.1,149.5,612.3,149Z" transform="translate(0 0)" style="fill:#fff"/><path d="M1201.4,149.3c-15.2-3.2-30.6-14.1-40.1-28.5-9.7-14.5-12.9-27.7-12.1-49.7.6-16.7,1.9-23,7.7-34.8a63.2,63.2,0,0,1,11.9-16.5C1182.3,5.6,1194.2.1,1211.4,0c12,0,19.5,1.8,28.5,6.7,12.4,6.8,20.7,15.7,27.9,30,6.1,12.1,7.6,19.9,7.6,38.3,0,19.2-1.1,24.3-8.2,39-3.9,8-5.9,10.8-13.2,18-9.2,9.2-16.6,13.6-27.6,16.5C1221,149.9,1206.3,150.4,1201.4,149.3Zm26.6-13.2c15.6-5.9,28.3-21.5,34.1-41.8,1.7-6,2.2-10.4,2.2-19.3,0-13.1-1.6-20.6-6.8-31.7-10.7-22.5-26.4-33.1-47.7-32.1-7.6.4-9.7.9-16.5,4.2-13.6,6.8-24.5,20.2-30.1,37.1-2.3,7-2.6,9.8-2.7,21.5-.1,15.7,1,21,6.6,33,7,14.6,21.2,27,35.3,30.7C1209.2,139.4,1221.1,138.7,1228,136.1Z" transform="translate(0 0)" style="fill:#fff"/><path d="M414.7,144.9c-1.2-.6-1.8-2.2-1.8-4.4,0-4.3,2-5.5,9.2-5.5h5.4l22.4-59.6c12.4-32.8,22.7-60,22.8-60.5s-6.9-.9-16.6-.9c-14.2,0-17.3-.3-18.6-1.6-2.3-2.2-2-7.1.4-8.4,1.2-.7,11.8-.9,30.2-.8l28.3.3L521.5,69l25.1,65.5,5.9.3c6.5.3,9.4,2.1,9.4,5.8,0,5.2-1.2,5.4-26.9,5.4-21.8,0-23.9-.2-25.4-1.8-2.2-2.4-2.1-5.5.1-7.5,1.5-1.4,4-1.7,13-1.7,6.2,0,11.2-.4,11.2-.9s-2.9-8.5-6.4-17.7l-6.4-16.9-34-.3-34-.2-6,16.2c-3.3,9-6.3,17.1-6.7,18.1-.7,1.6.2,1.7,10.5,1.7,13.1,0,15,.7,15,5.5,0,2.4-.6,3.8-1.9,4.5C461.4,146.3,417,146.3,414.7,144.9ZM515.5,85.3c-.3-1-6.6-17.3-14-36.3-8.5-22.2-13.8-34.6-14.8-34.8s-4.8,8.4-14.6,34.5c-7.2,19.1-13.3,35.6-13.7,36.6-.7,1.6,1.1,1.7,28.5,1.7S516,86.9,515.5,85.3Z" transform="translate(0 0)" style="fill:#fff"/><path d="M701.7,144.9c-2.5-1.4-2.4-7.5.1-8.9,1.2-.6,9.8-1,21-1h19.1V14H722.8c-11.2,0-19.8-.4-21-1-2.2-1.2-2.7-6.8-.7-8.8,1.7-1.7,91.9-1.7,93.6,0,2,2,1.5,7.6-.7,8.8-1.2.6-9.8,1-21,1H753.9V135H773c11.2,0,19.8.4,21,1s1.9,2.1,1.9,4.5-.6,3.8-1.9,4.5C791.3,146.4,704.1,146.3,701.7,144.9Z" transform="translate(0 0)" style="fill:#fff"/><path d="M818.6,144.2c-2.2-2.4-2.1-5.5.1-7.5,1.5-1.4,4.2-1.7,16-1.7h14.2V14H834.6c-12.7,0-14.6-.2-16-1.8-2.1-2.3-2.2-5.6-.1-7.6,1.3-1.4,6-1.6,35.9-1.6,37.3,0,37.5,0,37.5,5.5,0,4.9-2,5.5-17.6,5.5H859.9V135h67.9l.3-22c.3-24.1.6-25.2,6.4-25.2,5.2-.1,5.4,1.2,5.4,30.9V146H880.1C823.3,146,820.1,145.9,818.6,144.2Z" transform="translate(0 0)" style="fill:#fff"/><path d="M952.9,144.5c-1.8-2.2-1.5-6.6.6-8.2,1.1-.8,4.8-1.3,10.1-1.3h8.3V14h-8.3c-9.3,0-11.9-1.2-11.9-5.3,0-6-2.8-5.7,59.8-5.7h57.4V22.5c0,18.2-.1,19.6-2,21.5-2.4,2.4-4.9,2.5-7.6.6-1.7-1.3-1.9-2.9-2.2-16l-.3-14.6H983.9V66h36V58.6c0-8.6,1.4-10.9,6.4-10.4,5.2.5,5.7,2.8,5.4,25.1-.3,18.3-.4,20-2.2,21.3-2.7,1.9-5.2,1.8-7.6-.6-1.6-1.6-2-3.3-2-9.5V77h-36v58h79V118.1c0-18.3.5-20.1,5.5-20.1,5.2,0,5.5,1.3,5.5,25.6V146H1014C962,146,954,145.8,952.9,144.5Z" transform="translate(0 0)" style="fill:#fff"/><path d="M1284.5,144.4a6,6,0,0,1-1.6-3.9c0-4.1,2.5-5.5,9.6-5.5h6.4V14h-8.6c-4.7,0-9.4-.5-10.5-1-2.3-1.3-2.6-7.1-.5-8.9.9-.8,6.5-1.1,17.7-.9l16.2.3,37.1,61.7c20.5,33.9,37.5,62,37.9,62.4s.7-25,.7-56.4V14h-11.1c-6.1,0-11.9-.5-13-1-2.2-1.2-2.7-6.8-.7-8.8.9-.9,7.8-1.2,24.9-1.2,25.7,0,26.9.2,26.9,5.4,0,3.9-3,5.6-9.8,5.6h-6.2V146h-14.5l-35.5-59.2c-19.5-32.5-36.5-60.7-37.7-62.7l-2.2-3.6-.1,57.3V135H1321c13,0,14.9.7,14.9,5.5,0,2.4-.6,3.8-1.9,4.5s-11,1-25,1C1289.5,146,1285.8,145.8,1284.5,144.4Z" transform="translate(0 0)" style="fill:#fff"/></svg>