<svg id="Layer_1" data-name="Layer 1" xmlns="http://www.w3.org/2000/svg" viewBox="0 0 391.18 243.55"><defs><style>.cls-1{fill:#fff;}</style></defs><path class="cls-1" d="M174.28,176.39c-11.9,11.87-28.48,18.63-47,18.63-36.95,0-66.11-26.9-66.11-67.41s29.16-67.4,66.11-67.4c18.54,0,35.12,6.76,47,18.63a120.31,120.31,0,0,1,29.2-41.76A118,118,0,0,0,127.26,9.65c-65.13,0-118,51.2-118,118s52.83,118,118,118a118,118,0,0,0,76.22-27.42A120.31,120.31,0,0,1,174.28,176.39Z" transform="translate(-9.3 -9.65)"/><path class="cls-1" d="M372.1,203.22l2.76-3.34c16.76-20.27,25.63-45.27,25.63-72.27,0-63.28-49.6-112.87-112.88-112.87A112.75,112.75,0,0,0,211.05,44a110.78,110.78,0,0,0-29.33,43.78c7.37,10.78,11.66,24.3,11.66,39.84s-4.29,29.07-11.66,39.85A110.72,110.72,0,0,0,211,211.24c20,18.25,46.76,29.25,76.57,29.25a113.66,113.66,0,0,0,50-11.37l3.47-1.68,21.31,24.17c1,1.15,1.67,1.56,2.05,1.59a3.58,3.58,0,0,0,2.18-1.13l25.63-21.41a4.6,4.6,0,0,0,1.61-2,4.26,4.26,0,0,0-1.22-2.15ZM344.28,164l-19.74-22.4c-3.24-3.89-7.12-4.53-11.34-1L287.61,162c-4.22,3.56-4.54,7.13-1,11.34l17.47,19.83A71.18,71.18,0,0,1,287.61,195c-20.61,0-38.79-8.37-50.85-22.8-9.55-11.44-15.27-26.69-15.27-44.61s5.72-33.16,15.27-44.6c12.06-14.43,30.24-22.8,50.85-22.8,36.93,0,66.1,26.9,66.1,67.4C353.71,141.51,350.28,153.8,344.28,164Z" transform="translate(-9.3 -9.65)"/></svg>